<svg width="39" height="38" viewBox="0 0 39 38" fill="none" xmlns="http://www.w3.org/2000/svg">
<g id="Frame 3">
<path id="Union" fill-rule="evenodd" clip-rule="evenodd" d="M15.3365 8.18763C14.7353 8.22022 14.1632 8.4572 13.715 8.85935L13.1836 9.39076C13.0054 9.56889 12.7638 9.66893 12.5119 9.66893C12.2599 9.66893 12.0183 9.56889 11.8401 9.39076L6.21534 3.76477C6.03782 3.5861 5.93817 3.34442 5.93817 3.09251C5.93817 2.8406 6.03782 2.59892 6.21534 2.42026L8.35662 0.278184C8.53541 0.101142 8.7768 0.00183039 9.02836 0.00183039C9.27993 0.00183039 9.52132 0.101142 9.7001 0.278184L13.715 4.29459C14.1632 4.69672 14.7353 4.9337 15.3365 4.96629H22.8296C23.4306 4.93313 24.0024 4.69622 24.4509 4.29459L28.4658 0.278184C28.644 0.100057 28.8856 0 29.1375 0C29.3895 0 29.6311 0.100057 29.8093 0.278184L31.9506 2.41776C32.128 2.59646 32.2277 2.83817 32.2277 3.0901C32.2277 3.34205 32.128 3.58376 31.9506 3.76245L26.3245 9.39094C26.2363 9.47914 26.1317 9.5491 26.0165 9.59685C25.9015 9.64458 25.778 9.66917 25.6533 9.66917C25.5287 9.66917 25.4053 9.64458 25.2901 9.59685C25.175 9.5491 25.0703 9.47914 24.9823 9.39094L24.4507 8.85935C24.0022 8.4577 23.4305 8.22079 22.8294 8.18763H15.3365ZM8.18533 22.6468C8.2179 23.248 8.45445 23.8201 8.8559 24.2688L9.38624 24.7991C9.56407 24.9774 9.66393 25.2188 9.66393 25.4707C9.66393 25.7225 9.56407 25.9639 9.38624 26.1423L3.76091 31.7708C3.58251 31.9485 3.34101 32.0483 3.08926 32.0483C2.83751 32.0483 2.59601 31.9485 2.41761 31.7708L0.27633 29.6288C0.0993113 29.4501 0 29.2087 0 28.9571C0 28.7057 0.0993113 28.4642 0.27633 28.2855L4.29123 24.2676C4.69354 23.8198 4.93045 23.2478 4.96252 22.6466V15.1494C4.93036 14.5479 4.69349 13.9755 4.29123 13.5273L0.27633 9.51092C0.0993113 9.33223 0 9.09086 0 8.83929C0 8.58772 0.0993113 8.34634 0.27633 8.16766L2.41761 6.02558C2.59599 5.84786 2.83749 5.74808 3.08926 5.74808C3.34103 5.74808 3.58253 5.84786 3.76091 6.02558L9.38624 11.6537C9.56409 11.8319 9.66395 12.0735 9.66395 12.3253C9.66395 12.5772 9.56409 12.8187 9.38624 12.997L8.8559 13.5275C8.45436 13.9761 8.21781 14.5483 8.18533 15.1496V22.6468ZM22.6943 29.6666C23.2954 29.6334 23.8671 29.3965 24.3155 28.9949L24.8465 28.4626C25.0251 28.2855 25.2665 28.1862 25.5179 28.1862C25.7693 28.1862 26.0105 28.2855 26.1891 28.4626L31.8178 34.0911C31.9955 34.2699 32.0951 34.5116 32.0951 34.7636C32.0951 35.0155 31.9955 35.2573 31.8178 35.4359L29.6765 37.578C29.498 37.7551 29.2566 37.8544 29.0051 37.8544C28.7536 37.8544 28.5123 37.7551 28.3336 37.578L24.3178 33.5596C23.8694 33.158 23.2977 32.9212 22.6967 32.8882H15.2022C14.601 32.9214 14.029 33.1582 13.5802 33.5596L9.56617 37.578C9.38738 37.7551 9.14595 37.8544 8.89435 37.8544C8.64274 37.8544 8.40131 37.7551 8.22252 37.578L6.08124 35.4359C5.90367 35.2573 5.80398 35.0155 5.80398 34.7636C5.80398 34.5116 5.90367 34.2699 6.08124 34.0911L11.7059 28.463C11.8849 28.2858 12.1264 28.1865 12.3781 28.1865C12.6298 28.1865 12.8714 28.2858 13.0504 28.463L13.5795 28.9949C14.0284 29.3966 14.6006 29.6334 15.202 29.6666H22.6943ZM29.1748 13.5852C29.5773 14.0343 29.8146 14.6074 29.8472 15.2096V22.704C29.8144 23.3059 29.5771 23.8786 29.1748 24.3271L28.6443 24.8589C28.467 25.0374 28.3675 25.2788 28.3675 25.5306C28.3675 25.7822 28.467 26.0236 28.6443 26.2022L34.2712 31.8296C34.4496 32.0073 34.6912 32.1069 34.9428 32.1069C35.1945 32.1069 35.4359 32.0073 35.6143 31.8296L37.7556 29.6864C37.9333 29.508 38.0331 29.2664 38.0331 29.0146C38.0331 28.7629 37.9333 28.5213 37.7556 28.3429L33.7416 24.3264C33.3391 23.8779 33.1016 23.3052 33.0688 22.7033L33.0699 15.2089C33.1022 14.6067 33.3391 14.0336 33.7416 13.5845L37.7556 9.56812C37.9333 9.39007 38.0331 9.14877 38.0331 8.8972C38.0331 8.64563 37.9333 8.40432 37.7556 8.22628L35.6143 6.08295C35.5261 5.99473 35.4215 5.92473 35.3063 5.87699C35.191 5.82924 35.0676 5.80465 34.9428 5.80465C34.8181 5.80465 34.6946 5.82924 34.5794 5.87699C34.464 5.92473 34.3594 5.99473 34.2712 6.08295L28.6443 11.7102C28.467 11.8887 28.3675 12.1302 28.3675 12.3819C28.3675 12.6336 28.467 12.8751 28.6443 13.0536L29.1748 13.5852Z" fill="white"/>
</g>
</svg>
