<svg width="25" height="25" viewBox="0 0 25 25" fill="none" xmlns="http://www.w3.org/2000/svg">
<g id="Frame 2">
<path id="Vector" d="M15.3852 5.769C12.1992 5.769 5.81714 3.18621 5.81714 0H5.76996C5.76996 2.55009 6.78295 4.99574 8.58611 6.79896C10.3893 8.60218 12.8348 9.61527 15.385 9.61537C16.915 9.61537 18.3824 10.2232 19.4644 11.3051C20.5464 12.387 21.1542 13.8544 21.1542 15.3845C21.1546 16.9145 20.547 18.3822 19.4653 19.4643C18.3835 20.5465 16.9162 21.1546 15.3862 21.1549C13.856 21.1552 12.3885 20.5476 11.3063 19.4659C10.2242 18.3841 9.61603 16.9168 9.61573 15.3868C9.61569 14.124 9.36695 12.8737 8.8837 11.7071C8.40044 10.5405 7.69215 9.48055 6.79924 8.5877C5.90633 7.69485 4.84632 6.98662 3.6797 6.50343C2.51309 6.02026 1.26272 5.7716 0 5.77164V5.81845C3.18561 5.81845 5.76841 12.1977 5.7696 15.3844H5.769C5.76899 17.2862 6.33288 19.1452 7.38939 20.7264C8.44592 22.3077 9.9476 23.5401 11.7046 24.2679C13.4615 24.9958 15.3948 25.1863 17.2601 24.8153C19.1252 24.4443 20.8386 23.5286 22.1834 22.184C23.5281 20.8393 24.444 19.1261 24.8151 17.2608C25.1863 15.3957 24.9959 13.4624 24.2683 11.7053C23.5406 9.94831 22.3083 8.44652 20.7271 7.38986C19.1459 6.33321 17.2869 5.76914 15.3852 5.769Z" fill="white"/>
</g>
</svg>
