<svg width="34" height="35" viewBox="0 0 34 35" fill="none" xmlns="http://www.w3.org/2000/svg">
<g id="Frame 4">
<path id="Vector" d="M18.7344 5.99367L20.0459 4.66406C22.6212 2.05306 26.8138 1.98844 29.404 4.58439C30.3854 5.57024 31.0377 6.84302 31.269 8.22395C31.5004 9.6049 31.2992 11.0246 30.6938 12.2837C30.4035 12.8852 30.3057 13.5635 30.4139 14.2241C30.5223 14.8847 30.8314 15.4944 31.2982 15.9682C32.1565 15.096 32.8368 14.0609 33.3004 12.922C33.7639 11.7831 34.0017 10.5628 34 9.3308C33.9981 8.09878 33.7572 6.87916 33.2904 5.74163C32.8236 4.60409 32.1403 3.57094 31.2797 2.7012C27.6578 -0.950135 21.7789 -0.877474 18.1672 2.78411L5.66699 15.4572L4.63936 14.4153C2.02038 11.76 2.00368 7.4197 4.66888 4.81161C5.65541 3.84918 6.91227 3.22092 8.266 3.01353C9.61973 2.80615 11.0036 3.02988 12.2265 3.65382C12.7847 3.94383 13.419 4.04757 14.0389 3.95024C14.6587 3.85291 15.2323 3.55948 15.6779 3.11186L15.7097 3.07972C15.7197 3.06973 15.7275 3.05785 15.7329 3.04475C15.7383 3.03167 15.741 3.01764 15.741 3.00346C15.741 2.98929 15.7383 2.97525 15.7329 2.96218C15.7275 2.9491 15.7197 2.93721 15.7097 2.92721C13.9893 1.22672 11.6837 0.271551 9.28098 0.263829C6.87824 0.256108 4.56677 1.19643 2.8357 2.88584C-0.893211 6.53546 -0.879886 12.6044 2.78511 16.3202L15.2816 28.9899L13.9541 30.3357C11.3788 32.9467 7.18601 33.0113 4.59603 30.4154C3.61459 29.4296 2.96238 28.1568 2.731 26.7759C2.49964 25.395 2.70071 23.9753 3.30601 22.7161C3.59641 22.1146 3.69428 21.4362 3.58597 20.7758C3.47764 20.1152 3.16853 19.5053 2.70181 19.0316C1.84353 19.9039 1.16317 20.9389 0.699591 22.0777C0.236006 23.2167 -0.00171328 24.4369 9.29501e-06 25.669C0.00173188 26.901 0.242862 28.1207 0.709631 29.2581C1.1764 30.3957 1.85966 31.4289 2.72036 32.2986C6.34202 35.9501 12.2211 35.8776 15.8328 32.2158L28.3492 19.5258L29.3807 20.5716C31.956 23.1827 32.0198 27.4334 29.4593 30.0593C28.487 31.0545 27.2315 31.7156 25.8695 31.9503C24.5075 32.1849 23.1072 31.9809 21.8652 31.3672C21.2718 31.0726 20.6024 30.9733 19.9506 31.0834C19.2989 31.1933 18.6972 31.507 18.2299 31.9806C19.0903 32.8508 20.1111 33.5407 21.2344 34.0107C22.3578 34.4806 23.5613 34.7217 24.7766 34.72C25.9918 34.7181 27.1948 34.4736 28.3167 34.0004C29.4387 33.5272 30.4578 32.8344 31.3156 31.9618C34.9172 28.2899 34.8455 22.3294 31.234 18.6678L18.7344 5.99367ZM17.1476 27.0971L7.53356 17.3498L16.8677 7.88644L26.4818 17.6338L17.1476 27.0971Z" fill="white"/>
</g>
</svg>
