<svg width="49" height="28" viewBox="0 0 49 28" fill="none" xmlns="http://www.w3.org/2000/svg">
<g id="Frame 5">
<path id="Union" fill-rule="evenodd" clip-rule="evenodd" d="M30.4169 6.20119L34.1719 2.44623C35.7382 0.87994 37.8625 0 40.0776 0C42.2927 0 44.417 0.87994 45.9834 2.44623C47.5497 4.01255 48.4296 6.13689 48.4296 8.35198C48.4296 10.5671 47.5497 12.6914 45.9834 14.2577L38.8235 21.4176C39.0626 20.5125 39.1697 19.5775 39.1413 18.6417L44.7543 13.0287C45.9798 11.7853 46.664 10.1077 46.6577 8.36192C46.6514 6.61609 45.955 4.94359 44.7206 3.7091C43.486 2.47459 41.8135 1.77826 40.0677 1.77193C38.3218 1.7656 36.6444 2.44978 35.4009 3.67528L31.646 7.43023L30.4169 6.20119ZM29.4952 27.2826C28.3984 27.2844 27.3121 27.0696 26.2986 26.6504C25.2852 26.2313 24.3645 25.6159 23.5895 24.8399L13.0071 14.2574C11.4444 12.6903 10.5675 10.5671 10.5691 8.35403C10.5706 6.14095 11.4505 4.01897 13.0154 2.45412C14.5803 0.889269 16.7023 0.00949522 18.9155 0.00801311C21.1285 0.00653102 23.2517 0.883463 24.8187 2.44621L35.4011 13.0287C36.5697 14.1962 37.3657 15.6841 37.6883 17.3043C38.011 18.9244 37.8456 20.6038 37.2133 22.13C36.5809 23.6561 35.5101 24.9602 34.1362 25.8775C32.7623 26.7948 31.1471 27.2837 29.4952 27.2826ZM24.8187 23.6111C26.0622 24.8366 27.7396 25.5208 29.4855 25.5145C31.2312 25.5082 32.9038 24.8118 34.1383 23.5772C35.3727 22.3428 36.0691 20.6703 36.0754 18.9245C36.0817 17.1786 35.3976 15.501 34.1721 14.2577L23.5896 3.67526C22.977 3.05377 22.2477 2.55963 21.4432 2.22132C20.639 1.88301 19.7756 1.70721 18.903 1.70405C18.0303 1.70087 17.1658 1.87041 16.359 2.20288C15.5523 2.53534 14.8192 3.02418 14.2022 3.6412C13.5852 4.25823 13.0963 4.99125 12.7639 5.79804C12.4314 6.60483 12.2619 7.46942 12.265 8.34201C12.2682 9.21462 12.444 10.078 12.7823 10.8823C13.1206 11.6867 13.6148 12.4161 14.2362 13.0287L24.8187 23.6111ZM16.7622 19.8562L13.0071 23.6111C11.7642 24.8391 10.0858 25.5255 8.33861 25.5203C6.59137 25.5151 4.91718 24.8187 3.68167 23.5832C2.44617 22.3477 1.74973 20.6735 1.74447 18.9262C1.73919 17.179 2.42552 15.5006 3.65353 14.2577L9.26225 8.64901C9.25934 8.55018 9.25734 8.4512 9.25734 8.35191C9.25681 7.51664 9.36403 6.68478 9.57638 5.87695L2.42525 13.0281C0.868158 14.5963 -0.00393312 16.7178 1.3336e-05 18.9278C0.00395981 21.1377 0.883622 23.256 2.44631 24.8187C4.009 26.3813 6.12733 27.261 8.33729 27.2648C10.5472 27.2688 12.6687 26.3967 14.2369 24.8396L17.9918 21.0846L16.7622 19.8562Z" fill="white"/>
</g>
</svg>
