<svg width="41" height="24" viewBox="0 0 41 24" fill="none" xmlns="http://www.w3.org/2000/svg">
<g id="Frame 1">
<path id="Vector" d="M38.3123 2.70537C36.7264 1.12336 34.6158 0.174257 32.3775 0.0366846C30.1394 -0.100888 27.9279 0.582552 26.1595 1.95839C24.5447 0.706478 22.558 0.0267066 20.513 0.0263112C18.468 0.0259158 16.4811 0.70492 14.8657 1.9562C13.0234 0.513733 10.6989 -0.1727 8.36656 0.0370449C6.03427 0.246789 3.87015 1.3369 2.31602 3.08481C0.761879 4.83273 -0.0650654 7.10663 0.00400275 9.4423C0.073071 11.778 1.03294 13.9993 2.68766 15.6527L8.33872 21.2924C8.3431 21.2966 8.34748 21.3007 8.3524 21.3051C8.35733 21.3094 8.35869 21.3115 8.36184 21.3146C8.36772 21.3205 8.37401 21.3258 8.37989 21.3317C8.46972 21.4204 8.56089 21.5068 8.65345 21.591C8.70105 21.6346 8.7492 21.6767 8.79762 21.7192C8.83692 21.7533 8.87641 21.7871 8.91607 21.8206C10.527 23.1826 12.5585 23.95 14.6694 23.9937C16.7805 24.0375 18.8422 23.3551 20.5084 22.0609C22.2769 23.4367 24.4883 24.1202 26.7265 23.9826C28.9647 23.8451 31.0754 22.8959 32.6612 21.314L38.3124 15.6751C40.0335 13.9539 41 11.6217 41 9.1902C41 6.75874 40.0334 4.42659 38.3123 2.70537ZM20.5112 2.41493C21.8548 2.41407 23.1684 2.81098 24.2858 3.55541C25.4033 4.29984 26.2741 5.35831 26.7884 6.59689C27.3027 7.83546 27.4372 9.19843 27.1748 10.5133C26.9125 11.8281 26.2651 13.0358 25.3146 13.9834L20.5112 18.7763L15.7076 13.9834C14.7571 13.0358 14.1097 11.8281 13.8474 10.5133C13.585 9.19838 13.7195 7.8354 14.2338 6.59683C14.7481 5.35825 15.6191 4.29977 16.7365 3.55535C17.854 2.81094 19.1676 2.41404 20.5112 2.41493ZM8.06667 14.8293C8.06422 13.9387 8.23883 13.0566 8.58037 12.2339C8.92191 11.4111 9.42361 10.6642 10.0564 10.0362L11.3349 8.76051C11.273 10.0357 11.4792 11.3096 11.9403 12.5005C12.4014 13.6913 13.1072 14.7727 14.0122 15.6751L18.7174 20.3702C17.7025 21.0795 16.512 21.4973 15.2755 21.5778C14.0392 21.6583 12.8042 21.3987 11.7055 20.8271C10.6068 20.2554 9.68642 19.3939 9.04471 18.3361C8.40302 17.2785 8.06462 16.0653 8.06639 14.8289L8.06667 14.8293ZM4.38277 13.9608C3.18041 12.7614 2.47259 11.1555 2.39912 9.46061C2.32566 7.76567 2.89189 6.10486 3.98596 4.80628C5.08004 3.50768 6.62241 2.66573 8.30837 2.44674C9.99435 2.22775 11.7013 2.64766 13.0921 3.6235L8.36102 8.34437C7.5049 9.194 6.82617 10.2046 6.36411 11.3178C5.90207 12.4309 5.66587 13.6245 5.66919 14.8293C5.66919 14.9715 5.67251 15.1132 5.67917 15.2544L4.38277 13.9608ZM26.1627 21.6075C24.7747 21.6108 23.4197 21.1866 22.2823 20.3928L27.0107 15.6751C27.9158 14.7727 28.6214 13.6913 29.0825 12.5005C29.5436 11.3096 29.7498 10.0357 29.688 8.76051L30.9665 10.0362C31.9166 10.9842 32.5634 12.1921 32.8255 13.507C33.0877 14.8218 32.9531 16.1847 32.4388 17.4233C31.9246 18.6619 31.0539 19.7205 29.9368 20.4653C28.8196 21.2101 27.5062 21.6075 26.1627 21.6075ZM36.6172 13.9834L35.3433 15.2544C35.3498 15.1133 35.353 14.9717 35.3533 14.8293C35.3566 13.6245 35.1204 12.4309 34.6583 11.3178C34.1963 10.2046 33.5175 9.194 32.6613 8.34437L27.9335 3.62664C29.3268 2.65921 31.0326 2.24733 32.715 2.47208C34.3974 2.69681 35.9345 3.54191 37.0237 4.84096C38.1128 6.14 38.6752 7.79886 38.5999 9.49095C38.5247 11.183 37.8174 12.7857 36.6172 13.9834Z" fill="white"/>
</g>
</svg>
