<svg width="16" height="16" viewBox="0 0 16 16" fill="none" xmlns="http://www.w3.org/2000/svg">
<g id="star-half-alt" clip-path="url(#clip0_302_463)">
<path id="Vector" d="M15.1805 5.47792L10.8112 4.8418L8.85869 0.889857C8.68317 0.536723 8.34078 0.358215 7.9984 0.358215C7.6581 0.358215 7.3181 0.534335 7.14198 0.889857L5.18884 4.8415L0.819292 5.47702C0.0357097 5.59045 -0.27832 6.55433 0.289739 7.10657L3.45063 10.1812L2.70257 14.5239C2.59631 15.1442 3.09153 15.6418 3.64616 15.6418C3.79332 15.6418 3.94466 15.6069 4.09004 15.5299L7.99899 13.4797L11.9076 15.5305C12.0527 15.6066 12.2038 15.6412 12.3503 15.6412C12.9056 15.6412 13.4017 15.1454 13.2954 14.5248L12.5482 10.1818L15.7097 7.10777C16.2781 6.55553 15.9641 5.59135 15.1805 5.47792ZM11.5465 9.15553L11.0056 9.6815L11.1333 10.4242L11.716 13.8108L8.66735 12.2111L7.99929 11.8606L8.00019 2.39225L9.52347 5.47553L9.8572 6.15105L10.6038 6.25971L14.0136 6.75613L11.5465 9.15553Z" fill="#FF9900"/>
</g>
<defs>
<clipPath id="clip0_302_463">
<rect width="16" height="16" fill="white"/>
</clipPath>
</defs>
</svg>
